<svg width="25" height="25" viewBox="0 0 25 25" fill="none" xmlns="http://www.w3.org/2000/svg">
<path d="M7.52993 3.5C5.32274 3.5 3.50586 5.293 3.50586 7.5V9.5L3.53681 17.5C3.53681 19.706 5.32473 21.5 7.52993 21.5H17.5127C19.7179 21.5 21.5059 19.709 21.5059 17.5L21.4749 9.5V7.5C21.4749 5.289 19.7159 3.5 17.5127 3.5C16.4777 3.5 8.50991 3.50002 7.52993 3.5ZM7.52993 5.5C8.49141 5.5 16.4777 5.48582 17.5127 5.5C18.6079 5.5 19.4783 6.388 19.4783 7.5V8.5C17.5577 8.5 7.42311 8.5 5.50242 8.5V7.5C5.50242 6.403 6.41985 5.5 7.52993 5.5ZM5.50242 10.5C7.42311 10.5 17.5577 10.5 19.4783 10.5L19.5093 17.5C19.5093 18.601 18.6158 19.5 17.5127 19.5H7.52993C6.42783 19.5 5.53337 18.605 5.53337 17.5L5.50242 10.5Z" fill="black" fill-opacity="0.38"/>
<path fill-rule="evenodd" clip-rule="evenodd" d="M9.5 3.5C9.5 2.94772 9.05229 2.5 8.5 2.5C7.94771 2.5 7.5 2.94772 7.5 3.5V5.5C7.5 6.05228 7.94771 6.5 8.5 6.5C9.05229 6.5 9.5 6.05228 9.5 5.5V3.5ZM17.5 3.5C17.5 2.94772 17.0523 2.5 16.5 2.5C15.9477 2.5 15.5 2.94772 15.5 3.5V5.5C15.5 6.05228 15.9477 6.5 16.5 6.5C17.0523 6.5 17.5 6.05228 17.5 5.5V3.5ZM9.5 13.5C9.5 14.0523 9.05229 14.5 8.5 14.5C7.94771 14.5 7.5 14.0523 7.5 13.5C7.5 12.9477 7.94771 12.5 8.5 12.5C9.05229 12.5 9.5 12.9477 9.5 13.5ZM8.5 17.5C9.05229 17.5 9.5 17.0523 9.5 16.5C9.5 15.9477 9.05229 15.5 8.5 15.5C7.94771 15.5 7.5 15.9477 7.5 16.5C7.5 17.0523 7.94771 17.5 8.5 17.5ZM13.5 13.5C13.5 14.0523 13.0523 14.5 12.5 14.5C11.9477 14.5 11.5 14.0523 11.5 13.5C11.5 12.9477 11.9477 12.5 12.5 12.5C13.0523 12.5 13.5 12.9477 13.5 13.5ZM12.5 17.5C13.0523 17.5 13.5 17.0523 13.5 16.5C13.5 15.9477 13.0523 15.5 12.5 15.5C11.9477 15.5 11.5 15.9477 11.5 16.5C11.5 17.0523 11.9477 17.5 12.5 17.5ZM17.5 13.5C17.5 14.0523 17.0523 14.5 16.5 14.5C15.9477 14.5 15.5 14.0523 15.5 13.5C15.5 12.9477 15.9477 12.5 16.5 12.5C17.0523 12.5 17.5 12.9477 17.5 13.5ZM16.5 17.5C17.0523 17.5 17.5 17.0523 17.5 16.5C17.5 15.9477 17.0523 15.5 16.5 15.5C15.9477 15.5 15.5 15.9477 15.5 16.5C15.5 17.0523 15.9477 17.5 16.5 17.5Z" fill="black" fill-opacity="0.6"/>
</svg>
