<svg width="25" height="24" viewBox="0 0 25 24" fill="none" xmlns="http://www.w3.org/2000/svg">
<path fill-rule="evenodd" clip-rule="evenodd" d="M9.5 6V4.10002C7.54087 4.4977 5.9977 6.04087 5.60002 8H7.5C8.60457 8 9.5 7.10457 9.5 6ZM3.5 9V10V14C3.5 16.2091 5.29086 18 7.5 18H13.5C15.7091 18 17.5 16.2091 17.5 14V6C17.5 3.79086 15.7091 2 13.5 2H11.5H10.5C6.63401 2 3.5 5.13401 3.5 9ZM11.5 4V6C11.5 8.20914 9.70914 10 7.5 10H5.5V14C5.5 15.1046 6.39543 16 7.5 16H13.5C14.6046 16 15.5 15.1046 15.5 14V6C15.5 4.89543 14.6046 4 13.5 4H11.5Z" fill="black" fill-opacity="0.6"/>
<path fill-rule="evenodd" clip-rule="evenodd" d="M17.5 6C19.7091 6 21.5 7.79086 21.5 10V18C21.5 20.2091 19.7091 22 17.5 22H11.5C9.29086 22 7.5 20.2091 7.5 18H9.5C9.5 19.1046 10.3954 20 11.5 20H17.5C18.6046 20 19.5 19.1046 19.5 18V10C19.5 8.89543 18.6046 8 17.5 8V6Z" fill="black" fill-opacity="0.38"/>
</svg>
