<svg width="17" height="17" viewBox="0 0 17 17" fill="none" xmlns="http://www.w3.org/2000/svg">
<path d="M6.9418 3.7425C5.27808 5.54574 4.11231 8.15779 4.004 8.40394L1.13008 7.11359L4.42614 3.93063C4.80864 3.56124 5.35549 3.40276 5.88159 3.51596L6.9418 3.7425ZM8.37687 12.2888C8.37687 12.2888 11.3901 11.1013 13.1398 9.41154C17.5345 5.16759 16.8736 1.77954 16.6549 1.0156C15.8992 0.762375 12.5361 -0.00843588 8.14138 4.23551C6.39162 5.92523 5.0996 8.89514 5.0996 8.89514L8.37687 12.2888ZM13.5907 10.6276C11.7304 12.2274 9.0793 13.3013 8.82953 13.4009L10.0188 16.3181L13.3148 13.1352C13.6974 12.7658 13.8748 12.2248 13.7801 11.6951L13.5907 10.6276ZM6.62717 13.0584C6.61558 13.7223 6.33315 14.3175 5.89368 14.7419C4.93335 15.6693 0.972174 16.1602 0.972174 16.1602C0.972174 16.1602 1.60106 12.2186 2.56139 11.2912C3.00087 10.8668 3.60552 10.6053 4.26942 10.6169C5.59722 10.6401 6.65034 11.7306 6.62717 13.0584ZM9.95234 5.91537C9.9677 5.03551 10.7002 4.32818 11.58 4.34354C12.4599 4.3589 13.1672 5.09136 13.1519 5.97122C13.1365 6.85109 12.404 7.55841 11.5242 7.54305C10.6443 7.5277 9.93698 6.79524 9.95234 5.91537Z" fill="black" fill-opacity="0.3"/>
</svg>
