<svg width="24" height="24" viewBox="0 0 24 24" fill="none" xmlns="http://www.w3.org/2000/svg">
<path fill-rule="evenodd" clip-rule="evenodd" d="M5.25 4.64254C6.328 3.63954 7.55099 2.90453 8.96899 2.45553C9.40099 2.31753 9.882 2.50954 10.125 2.89254C11.074 4.38854 12.878 4.36154 13.844 2.86154C14.086 2.48554 14.541 2.32553 14.969 2.45553C16.362 2.87953 17.691 3.65254 18.781 4.64254C19.127 4.95654 19.199 5.45454 18.969 5.86154C18.142 7.32154 19.09 8.98353 20.781 8.98653C21.249 8.98753 21.648 9.31154 21.75 9.76754C21.911 10.4895 22 11.2325 22 11.9865C22 12.8635 21.954 13.4885 21.781 14.2055C21.674 14.6475 21.268 14.9475 20.812 14.9555C19.094 14.9845 18.137 16.5265 18.969 18.2055C19.167 18.6055 19.08 19.0925 18.75 19.3925C17.679 20.3695 16.387 21.1125 15 21.5485C14.58 21.6815 14.124 21.5065 13.875 21.1425C12.819 19.5985 11.206 19.6045 10.094 21.1425C9.84199 21.4915 9.37899 21.6465 8.96899 21.5175C7.53199 21.0675 6.312 20.3755 5.25 19.3925C4.933 19.0995 4.85101 18.6295 5.03101 18.2365C5.84301 16.4675 4.943 15.0815 3.125 14.9245C2.685 14.8855 2.30899 14.5745 2.21899 14.1425C2.07399 13.4505 2 12.6735 2 11.9865C2 11.1675 2.071 10.5435 2.25 9.79853C2.354 9.36753 2.74499 9.04054 3.18799 9.01754C4.99399 8.92654 5.83201 7.34254 5.03101 5.86154C4.81501 5.46054 4.917 4.95354 5.25 4.64254ZM12.001 18C15.3147 18 18.001 15.3137 18.001 12C18.001 8.68629 15.3147 6 12.001 6C8.68727 6 6.00098 8.68629 6.00098 12C6.00098 15.3137 8.68727 18 12.001 18Z" fill="black" fill-opacity="0.38"/>
<path fill-rule="evenodd" clip-rule="evenodd" d="M12 8C9.79086 8 8 9.79086 8 12C8 14.2091 9.79086 16 12 16C14.2091 16 16 14.2091 16 12C16 9.79086 14.2091 8 12 8ZM6 12C6 8.68629 8.68629 6 12 6C15.3137 6 18 8.68629 18 12C18 15.3137 15.3137 18 12 18C8.68629 18 6 15.3137 6 12Z" fill="black" fill-opacity="0.6"/>
</svg>
