<svg width="28" height="28" viewBox="0 0 28 28" fill="none" xmlns="http://www.w3.org/2000/svg">
<path fill-rule="evenodd" clip-rule="evenodd" d="M14 28C21.732 28 28 21.732 28 14C28 6.26801 21.732 0 14 0C6.26801 0 0 6.26801 0 14C0 21.732 6.26801 28 14 28ZM8.496 14.592C8.6 14.344 9.72 11.712 11.352 9.87997L10.288 9.67197C9.76 9.56797 9.216 9.73597 8.84 10.112L5.6 13.352L8.496 14.592ZM17.648 15.44C15.928 17.16 12.936 18.4 12.936 18.4L9.6 15.064C9.6 15.064 10.84 12.072 12.56 10.352C16.88 6.03197 20.256 6.74397 21.016 6.98397C21.248 7.74397 21.968 11.12 17.648 15.44ZM13.408 19.504C13.656 19.4 16.288 18.28 18.12 16.648L18.328 17.712C18.432 18.24 18.264 18.784 17.888 19.16L14.648 22.4L13.408 19.504ZM10.496 20.896C10.928 20.464 11.2 19.864 11.2 19.2C11.2 17.872 10.128 16.8 8.8 16.8C8.136 16.8 7.536 17.072 7.104 17.504C6.16 18.448 5.6 22.4 5.6 22.4C5.6 22.4 9.552 21.84 10.496 20.896ZM16 10.4C15.12 10.4 14.4 11.12 14.4 12C14.4 12.88 15.12 13.6 16 13.6C16.88 13.6 17.6 12.88 17.6 12C17.6 11.12 16.88 10.4 16 10.4Z" fill="url(#paint0_linear_478_41029)"/>
<defs>
<linearGradient id="paint0_linear_478_41029" x1="25.6" y1="2.4" x2="2.8" y2="28" gradientUnits="userSpaceOnUse">
<stop offset="0.192708" stop-color="#F36D25"/>
<stop offset="1" stop-color="#E03713"/>
</linearGradient>
</defs>
</svg>
