<svg width="14" height="14" viewBox="0 0 14 14" fill="none" xmlns="http://www.w3.org/2000/svg">
<path d="M9.81641 8.69116H9.22391L9.01391 8.48866C9.74891 7.63366 10.1914 6.52366 10.1914 5.31616C10.1914 2.62366 8.00891 0.441162 5.31641 0.441162C2.62391 0.441162 0.441406 2.62366 0.441406 5.31616C0.441406 8.00866 2.62391 10.1912 5.31641 10.1912C6.52391 10.1912 7.63391 9.74866 8.48891 9.01366L8.69141 9.22366V9.81616L12.4414 13.5587L13.5589 12.4412L9.81641 8.69116ZM5.31641 8.69116C3.44891 8.69116 1.94141 7.18366 1.94141 5.31616C1.94141 3.44866 3.44891 1.94116 5.31641 1.94116C7.18391 1.94116 8.69141 3.44866 8.69141 5.31616C8.69141 7.18366 7.18391 8.69116 5.31641 8.69116Z" fill="black" fill-opacity="0.38"/>
</svg>
