<svg width="24" height="25" viewBox="0 0 24 25" fill="none" xmlns="http://www.w3.org/2000/svg">
<path fill-rule="evenodd" clip-rule="evenodd" d="M11 8.5C9.89543 8.5 9 9.39543 9 10.5V18.5C9 19.6046 9.89543 20.5 11 20.5H13C14.1046 20.5 15 19.6046 15 18.5V10.5C15 9.39543 14.1046 8.5 13 8.5H11ZM11 10.5L13 10.5V18.5H11V10.5ZM4 12.5C2.89543 12.5 2 13.3954 2 14.5V18.5C2 19.6046 2.89543 20.5 4 20.5H6C7.10457 20.5 8 19.6046 8 18.5V14.5C8 13.3954 7.10457 12.5 6 12.5H4ZM4 14.5H6V18.5H4V14.5Z" fill="black" fill-opacity="0.38"/>
<path fill-rule="evenodd" clip-rule="evenodd" d="M16 6.5C16 5.39543 16.8954 4.5 18 4.5H20C21.1046 4.5 22 5.39543 22 6.5V18.5C22 19.6046 21.1046 20.5 20 20.5H18C16.8954 20.5 16 19.6046 16 18.5V6.5ZM20 6.5L18 6.5V18.5H20V6.5Z" fill="black" fill-opacity="0.38"/>
</svg>
