<svg width="24" height="24" viewBox="0 0 24 24" fill="none" xmlns="http://www.w3.org/2000/svg">
<path d="M8.5 3C10.9853 3 13 5.015 13 7.5C13 9.985 10.9853 12 8.5 12C6.0147 12 4 9.985 4 7.5C4 5.015 6.0147 3 8.5 3ZM11.9375 13.344C13.7716 14.101 15 15.956 15 18V20C15 20.552 14.5523 21 14 21H3C2.4477 21 2 20.552 2 20V18C2 16.004 3.2352 14.194 5.0625 13.406C5.3197 13.295 5.6194 13.292 5.875 13.406C6.7598 13.803 7.6218 14 8.5 14C9.3752 14 10.2402 13.792 11.1562 13.375C11.4081 13.26 11.6817 13.238 11.9375 13.344Z" fill="black" fill-opacity="0.6"/>
<path d="M16 4C18.2091 4 20 5.791 20 8C20 10.209 18.2091 12 16 12C15.1706 12 14.4135 11.772 13.7472 11.306C15.456 8.76603 15.2138 6.334 14.2825 4.375C14.8144 4.123 15.3986 4 16 4ZM18.9375 13.344C20.7716 14.101 22 15.956 22 18V20C22 20.552 21.5523 21 21 21L16.8472 21.002C17.0812 20.242 17.0124 19.01 16.997 18.013C16.9645 15.896 16.089 14.386 15.7461 13.988C16.3763 13.983 17.1326 13.83 17.6875 13.594C17.8215 13.537 17.8993 13.492 18.1562 13.375C18.4081 13.26 18.6817 13.238 18.9375 13.344Z" fill="black" fill-opacity="0.38"/>
</svg>
