<svg width="64" height="64" viewBox="0 0 64 64" fill="none" xmlns="http://www.w3.org/2000/svg">
<path fill-rule="evenodd" clip-rule="evenodd" d="M32 64C49.6731 64 64 49.6731 64 32C64 14.3269 49.6731 0 32 0C14.3269 0 0 14.3269 0 32C0 49.6731 14.3269 64 32 64ZM19.4198 33.3529C19.6575 32.7861 22.2175 26.7701 25.9478 22.5827L23.5158 22.1072C22.309 21.8695 21.0655 22.2535 20.2061 23.1129L12.8004 30.5187L19.4198 33.3529ZM40.3387 35.2912C36.4072 39.2227 29.5684 42.0569 29.5684 42.0569L21.9432 34.4318C21.9432 34.4318 24.7775 27.5929 28.709 23.6615C38.5832 13.7872 46.2998 15.4147 48.037 15.9632C48.5672 17.7004 50.213 25.4169 40.3387 35.2912ZM30.6472 44.5804C31.2141 44.3427 37.2301 41.7827 41.4175 38.0524L41.893 40.4844C42.1307 41.6912 41.7467 42.9347 40.8872 43.7941L33.4815 51.1998L30.6472 44.5804ZM23.9912 47.7621C24.9787 46.7747 25.6004 45.4032 25.6004 43.8855C25.6004 40.8501 23.1501 38.3998 20.1147 38.3998C18.597 38.3998 17.2255 39.0215 16.2381 40.0089C14.0804 42.1667 12.8004 51.1998 12.8004 51.1998C12.8004 51.1998 21.8335 49.9198 23.9912 47.7621ZM36.5718 23.7712C34.5604 23.7712 32.9147 25.4169 32.9147 27.4284C32.9147 29.4398 34.5604 31.0855 36.5718 31.0855C38.5832 31.0855 40.229 29.4398 40.229 27.4284C40.229 25.4169 38.5832 23.7712 36.5718 23.7712Z" fill="url(#paint0_linear_1662_57855)"/>
<defs>
<linearGradient id="paint0_linear_1662_57855" x1="58.5143" y1="5.48571" x2="6.4" y2="64" gradientUnits="userSpaceOnUse">
<stop offset="0.192708" stop-color="#F36D25"/>
<stop offset="1" stop-color="#E03713"/>
</linearGradient>
</defs>
</svg>
